<svg width="34" height="34" viewBox="0 0 34 34" fill="none" xmlns="http://www.w3.org/2000/svg">
<g clip-path="url(#clip0_852:963)">
<path d="M33.4065 6.70564C33.6152 6.50977 33.7775 6.26965 33.8816 6.00284C33.9857 5.73603 34.0289 5.44928 34.0082 5.16356V0H25.8984V7.22112H31.5884C32.2364 7.27284 32.8816 7.08994 33.4065 6.70564Z" fill="white"/>
<path d="M0 34.0747L2.61606 9.07812H10.6517L8.03565 32.0258C8.02794 32.3334 7.93549 32.6329 7.76852 32.8912C7.60155 33.1495 7.36655 33.3565 7.08951 33.4893C6.41331 33.8865 5.64085 34.089 4.85714 34.0747H0Z" fill="white"/>
<path d="M11.5742 34.0748L14.1903 9.0957H22.2346L19.6186 32.0434C19.61 32.3514 19.5167 32.651 19.349 32.9092C19.1813 33.1674 18.9456 33.3742 18.6681 33.5069C17.9892 33.8996 17.215 34.0961 16.4314 34.0748H11.5742Z" fill="white"/>
<path d="M23.3867 34.0748H28.1828C28.9879 34.0877 29.7713 33.8136 30.3934 33.3015C30.697 33.0658 30.9412 32.762 31.1063 32.4145C31.2713 32.067 31.3527 31.6855 31.3439 31.3008L33.9599 9.0957H26.0202L23.3867 34.0748Z" fill="white"/>
</g>
<defs>
<clipPath id="clip0_852:963">
<rect width="34" height="34" fill="white"/>
</clipPath>
</defs>
</svg>
