<svg width="100" height="32" viewBox="0 0 100 32" fill="none" xmlns="http://www.w3.org/2000/svg">
<path d="M63.1609 4.99169C63.3175 4.8453 63.4392 4.66684 63.517 4.46909C63.5949 4.27134 63.6272 4.0592 63.6115 3.84784V0H57.4609V5.37298H61.7806C62.2726 5.41239 62.7626 5.27702 63.1609 4.99169V4.99169Z" fill="#F7AC4A"/>
<path d="M16.6851 16.0595C16.6851 19.2497 16.175 21.6423 15.1547 23.2374C14.1343 24.8325 12.3738 25.6301 9.87306 25.6301C9.08093 25.6667 8.29074 25.5255 7.56302 25.2173C7.12514 25.0294 6.72818 24.761 6.39371 24.4268L6.27213 25.4237H0C0.100125 24.9713 0.209786 24.365 0.328983 23.6047C0.430181 23.0417 0.491119 22.4725 0.511353 21.9012V0H6.59038V7.86707C6.92316 7.50409 7.32523 7.20822 7.774 6.99606C8.42394 6.6752 9.14533 6.51771 9.87306 6.53782C12.5955 6.53782 14.4109 7.4578 15.3191 9.29777C16.2274 11.1377 16.6828 13.3916 16.6851 16.0595ZM10.624 16.0595C10.624 14.2965 10.4392 12.9894 10.0697 12.1382C9.71214 11.2881 9.20436 10.8614 8.58216 10.8614C7.95995 10.8614 7.50939 11.2637 7.12677 12.0647C6.74414 12.8658 6.5725 14.1985 6.5725 16.0595C6.5725 17.9204 6.75845 19.2567 7.12677 20.0787C7.49508 20.9007 7.98141 21.3135 8.58216 21.3135C9.18291 21.3135 9.72287 20.9112 10.084 20.1102C10.4452 19.3091 10.624 17.9554 10.624 16.0595V16.0595Z" fill="white"/>
<path d="M29.2616 25.2476C29.161 25.0757 29.0989 24.885 29.0792 24.6879C29.0486 24.5132 29.0295 24.3368 29.022 24.1597C28.6133 24.509 28.1527 24.7956 27.656 25.0097C26.9882 25.3283 26.2535 25.49 25.5105 25.482C23.446 25.482 21.8154 24.885 20.6187 23.691C19.4219 22.497 18.8212 20.7794 18.8164 18.5384V6.51562H24.8954V17.8388C24.8954 18.9535 25.1005 19.7848 25.5105 20.3329C25.9181 20.882 26.3651 21.1549 26.8443 21.1549C27.4451 21.1549 27.9302 20.8272 28.2997 20.1719C28.6921 19.4552 28.8892 18.6516 28.8718 17.8388V6.51562H34.9008V21.3368C34.9008 22.0819 34.9187 22.736 34.9473 23.3342C34.9759 23.9323 35.0331 24.5585 35.1118 25.2441L29.2616 25.2476Z" fill="white"/>
<path d="M37.7812 25.2778L39.7838 6.73828H45.8628L43.8746 23.7877C43.8694 24.0159 43.7999 24.2383 43.6737 24.4302C43.5475 24.6222 43.3695 24.7763 43.1594 24.8756C42.649 25.1633 42.0677 25.3085 41.4787 25.2953L37.7812 25.2778Z" fill="white"/>
<path d="M46.5742 25.2779L48.5767 6.73828H54.6558L52.6676 23.7877C52.662 24.0158 52.5923 24.238 52.4662 24.4299C52.34 24.6218 52.1622 24.776 51.9524 24.8756C51.4405 25.163 50.8581 25.3081 50.2681 25.2953L46.5742 25.2779Z" fill="white"/>
<path d="M81.367 24.2481C81.4248 26.293 80.6535 28.2773 79.2215 29.768C77.7911 31.2559 75.7064 31.9998 72.9672 31.9998C70.8432 31.9998 69.0922 31.4168 67.7142 30.2508C67.05 29.7167 66.5164 29.044 66.1526 28.2819C65.7887 27.5199 65.6039 26.6878 65.6116 25.8467H71.5834C71.7455 26.6303 72.0065 27.1678 72.3665 27.4593C72.6427 27.7188 73.0035 27.8748 73.3856 27.9001C74.0245 27.9001 74.5013 27.5188 74.816 26.7562C75.1343 25.9185 75.2895 25.0298 75.2737 24.1362V23.0168C74.9496 23.3465 74.5743 23.6239 74.1616 23.8389C73.4995 24.1145 72.7806 24.2343 72.0625 24.1887C69.6786 24.1887 67.9634 23.4506 66.9168 21.9744C65.8703 20.4983 65.3446 18.2129 65.3398 15.1183C65.3398 12.145 65.8893 9.89921 66.9883 8.38107C68.0873 6.86292 69.7883 6.10501 72.0911 6.10735C72.9166 6.08008 73.7403 6.19857 74.5227 6.45715C75.0267 6.61492 75.4736 6.91122 75.8101 7.31067C75.7837 7.16019 75.7837 7.00641 75.8101 6.85593C75.8456 6.66898 75.9007 6.48611 75.9746 6.31023H81.5315C81.4542 6.91972 81.4088 7.53268 81.3956 8.1467C81.3956 8.6854 81.3956 9.27656 81.3956 9.9237L81.367 24.2481ZM75.288 15.1183C75.3353 13.9568 75.1619 12.7968 74.7766 11.6972C74.4381 10.8693 73.9482 10.4542 73.3069 10.4519C72.7455 10.4519 72.2878 10.8822 71.9266 11.7427C71.5285 12.824 71.3452 13.9697 71.3867 15.1183C71.3638 16.2481 71.5293 17.3741 71.8766 18.4519C72.2056 19.3987 72.6824 19.8733 73.3069 19.8756C74.0221 19.8756 74.5371 19.3964 74.8374 18.4379C75.1494 17.3585 75.2964 16.2398 75.2737 15.1183H75.288Z" fill="white"/>
<path d="M99.9998 15.853C99.9998 19.1411 99.3645 21.5582 98.0938 23.1044C96.8232 24.6505 94.7372 25.4236 91.836 25.4236C89.0754 25.4236 87.0252 24.6458 85.6854 23.0904C84.3457 21.5349 83.6758 19.1224 83.6758 15.853C83.6758 12.5881 84.4005 10.1861 85.8499 8.64701C87.2994 7.10787 89.2947 6.33947 91.836 6.3418C94.4011 6.3418 96.4024 7.1102 97.8399 8.64701C99.2774 10.1838 99.9974 12.5858 99.9998 15.853ZM93.9672 15.853C93.9672 13.9873 93.7574 12.6569 93.3379 11.8617C92.9183 11.0665 92.4177 10.6642 91.836 10.6549C91.2174 10.6549 90.706 11.0572 90.3091 11.8617C89.9122 12.6662 89.7083 13.992 89.7083 15.853C89.7083 17.518 89.8979 18.81 90.2769 19.7288C90.6559 20.6488 91.178 21.107 91.836 21.107C92.494 21.107 93.0697 20.6488 93.4273 19.7288C93.7849 18.8088 93.9672 17.518 93.9672 15.853Z" fill="white"/>
<path d="M55.5508 25.2756H59.2089C59.821 25.2853 60.4166 25.082 60.8896 24.7019C61.1194 24.5269 61.3039 24.3015 61.4281 24.0438C61.5524 23.7862 61.6129 23.5035 61.6048 23.2187L63.6037 6.75H57.5497L55.5508 25.2756Z" fill="white"/>
</svg>
