<svg width="60" height="48" viewBox="0 0 60 48" fill="none" xmlns="http://www.w3.org/2000/svg">
<path d="M0 8C0 3.58172 3.58172 0 8 0H60V48H8C3.58172 48 0 44.4183 0 40V8Z" fill="#808080"/>
<path d="M29.5013 22.1667C30.0375 22.1667 30.5685 22.0611 31.0639 21.8559C31.5593 21.6507 32.0095 21.3499 32.3887 20.9707C32.7678 20.5916 33.0686 20.1414 33.2738 19.646C33.479 19.1506 33.5846 18.6196 33.5846 18.0834C33.5846 17.5471 33.479 17.0161 33.2738 16.5207C33.0686 16.0253 32.7678 15.5752 32.3887 15.196C32.0095 14.8168 31.5593 14.516 31.0639 14.3108C30.5685 14.1056 30.0375 14 29.5013 14C28.4183 14 27.3797 14.4302 26.6139 15.196C25.8482 15.9618 25.418 17.0004 25.418 18.0834C25.418 19.1663 25.8482 20.205 26.6139 20.9707C27.3797 21.7365 28.4183 22.1667 29.5013 22.1667V22.1667Z" stroke="white" stroke-width="2" stroke-linecap="round" stroke-linejoin="round"/>
<path d="M19 34.2987V34.9988H40V34.2987C40 31.6854 40 30.3787 39.4913 29.38C39.0439 28.502 38.33 27.7881 37.452 27.3407C36.4533 26.832 35.1467 26.832 32.5333 26.832H26.4667C23.8533 26.832 22.5467 26.832 21.548 27.3407C20.6699 27.7881 19.9561 28.502 19.5087 29.38C19 30.3787 19 31.6854 19 34.2987Z" stroke="white" stroke-width="2" stroke-linecap="round" stroke-linejoin="round"/>
</svg>
