<svg width="60" height="48" viewBox="0 0 60 48" fill="none" xmlns="http://www.w3.org/2000/svg">
<path d="M0 8C0 3.58172 3.58172 0 8 0H60V48H8C3.58172 48 0 44.4183 0 40V8Z" fill="#808080"/>
<path d="M37.6667 21.7363H21.3333C20.0447 21.7363 19 22.726 19 23.9469V32.7891C19 34.0099 20.0447 34.9996 21.3333 34.9996H37.6667C38.9553 34.9996 40 34.0099 40 32.7891V23.9469C40 22.726 38.9553 21.7363 37.6667 21.7363Z" stroke="white" stroke-width="2" stroke-linecap="round" stroke-linejoin="round"/>
<path d="M22.5 17.3158C22.5 16.4364 22.8687 15.593 23.5251 14.9712C24.1815 14.3493 25.0717 14 26 14H33C33.9283 14 34.8185 14.3493 35.4749 14.9712C36.1313 15.593 36.5 16.4364 36.5 17.3158V21.7369H22.5V17.3158Z" stroke="white" stroke-width="2" stroke-linecap="round" stroke-linejoin="round"/>
</svg>
