<svg width="100" height="100" viewBox="0 0 100 100" fill="none" xmlns="http://www.w3.org/2000/svg">
<circle cx="50" cy="50" r="50" fill="#808080"/>
<path d="M50.3129 45.8681C51.1907 45.8681 52.0599 45.6952 52.8708 45.3593C53.6817 45.0234 54.4186 44.531 55.0393 43.9103C55.6599 43.2897 56.1523 42.5528 56.4882 41.7419C56.8241 40.931 56.997 40.0618 56.997 39.184C56.997 38.3063 56.8241 37.4371 56.4882 36.6262C56.1523 35.8152 55.6599 35.0784 55.0393 34.4577C54.4186 33.837 53.6817 33.3447 52.8708 33.0088C52.0599 32.6729 51.1907 32.5 50.3129 32.5C48.5402 32.5 46.8401 33.2042 45.5866 34.4577C44.3331 35.7112 43.6289 37.4113 43.6289 39.184C43.6289 40.9567 44.3331 42.6569 45.5866 43.9103C46.8401 45.1638 48.5402 45.8681 50.3129 45.8681V45.8681Z" stroke="white" stroke-width="3" stroke-linecap="round" stroke-linejoin="round"/>
<path d="M33.125 65.7281V66.8739H67.5V65.7281C67.5 61.4503 67.5 59.3114 66.6674 57.6767C65.935 56.2394 64.7665 55.0709 63.3292 54.3385C61.6944 53.5059 59.5556 53.5059 55.2778 53.5059H45.3472C41.0694 53.5059 38.9306 53.5059 37.2958 54.3385C35.8585 55.0709 34.69 56.2394 33.9576 57.6767C33.125 59.3114 33.125 61.4503 33.125 65.7281Z" stroke="white" stroke-width="3" stroke-linecap="round" stroke-linejoin="round"/>
</svg>
