<svg width="50" height="50" viewBox="0 0 50 50" fill="none" xmlns="http://www.w3.org/2000/svg">
<circle cx="25" cy="25" r="25" fill="#7699D4"/>
<path d="M35.5054 19.43H33.4799V27.6329C33.4799 28.2412 33.2449 29 32.2685 29H27.4229V20.7972H22.5773V29H17.7316C16.7553 29 16.5202 28.2412 16.5202 27.6329V19.43H14.4948C13.7704 19.43 13.9254 18.9871 14.4221 18.4074L24.1424 7.42655C24.3786 7.15039 24.6887 7.01367 25.0001 7C25.3114 7.01367 25.6215 7.14902 25.8577 7.42655L35.5768 18.406C36.0747 18.9871 36.2298 19.43 35.5054 19.43Z" fill="white"/>
<path d="M17.2412 41H15.7764V37.9531H12.9199V41H11.4551V33.8906H12.9199V36.7715H15.7764V33.8906H17.2412V41ZM24.3652 37.6064C24.3652 38.3063 24.2415 38.9199 23.9941 39.4473C23.7467 39.9746 23.3919 40.3815 22.9297 40.668C22.4707 40.9544 21.9434 41.0977 21.3477 41.0977C20.7585 41.0977 20.2327 40.9561 19.7705 40.6729C19.3083 40.3896 18.9502 39.986 18.6963 39.4619C18.4424 38.9346 18.3138 38.3291 18.3105 37.6455V37.2939C18.3105 36.5941 18.4359 35.9788 18.6865 35.4482C18.9404 34.9144 19.2969 34.5059 19.7559 34.2227C20.2181 33.9362 20.7454 33.793 21.3379 33.793C21.9303 33.793 22.4561 33.9362 22.915 34.2227C23.3773 34.5059 23.7337 34.9144 23.9844 35.4482C24.2383 35.9788 24.3652 36.5924 24.3652 37.2891V37.6064ZM22.8809 37.2842C22.8809 36.5387 22.7474 35.9723 22.4805 35.585C22.2135 35.1976 21.8327 35.0039 21.3379 35.0039C20.8464 35.0039 20.4671 35.196 20.2002 35.5801C19.9333 35.9609 19.7982 36.5208 19.7949 37.2598V37.6064C19.7949 38.3324 19.9284 38.8955 20.1953 39.2959C20.4622 39.6963 20.8464 39.8965 21.3477 39.8965C21.8392 39.8965 22.2168 39.7044 22.4805 39.3203C22.7441 38.9329 22.8776 38.3698 22.8809 37.6309V37.2842ZM27.3438 33.8906L29.1699 39.0469L30.9863 33.8906H32.9102V41H31.4404V39.0566L31.5869 35.7021L29.668 41H28.6621L26.748 35.707L26.8945 39.0566V41H25.4297V33.8906H27.3438ZM38.4668 37.9189H35.6543V39.8232H38.9551V41H34.1895V33.8906H38.9453V35.0771H35.6543V36.7715H38.4668V37.9189Z" fill="white"/>
</svg>
